<svg xmlns="http://www.w3.org/2000/svg" id="Standard" viewBox="0 0 1475.26 441.83"><defs><style>.cls-1{fill:#af7db9;fill-rule:evenodd;}.cls-2{fill:#000674;}</style></defs><path class="cls-2" d="M179.68,293.04c-10.08,4.44-22.21,6.66-36.37,6.66-11.76,0-22.51-2.04-32.23-6.12-9.72-4.08-18.18-9.84-25.39-17.28-7.2-7.44-12.73-16.38-16.56-26.83-3.84-10.44-5.76-22.02-5.76-34.75s1.92-23.95,5.76-34.39c3.84-10.44,9.36-19.44,16.56-27.01s15.66-13.32,25.39-17.28,20.35-5.94,31.87-5.94c13.44,0,25.21,2.16,35.29,6.48,10.08,4.32,18.6,10.32,25.57,18l33.49-33.49c-11.76-11.28-25.27-20.22-40.51-26.83-15.25-6.6-33.19-9.9-53.83-9.9-18.49,0-35.65,3.36-51.49,10.08-15.84,6.72-29.65,15.97-41.41,27.73s-20.89,25.57-27.37,41.41c-6.48,15.84-9.72,32.89-9.72,51.13s3.24,35.29,9.72,51.13c6.48,15.84,15.66,29.71,27.55,41.59s25.75,21.19,41.59,27.91c15.84,6.72,33.13,10.08,51.85,10.08,20.17,0,38.11-3.3,53.83-9.9,15.72-6.6,29.58-15.66,41.59-27.19l-33.49-33.49c-7.2,7.69-15.84,13.75-25.93,18.18Z"></path><polygon class="cls-2" points="714.76 251.77 588.01 88.33 553.8 88.33 553.8 341.47 602.77 341.47 602.77 178.57 728.8 341.47 763.73 341.47 763.73 88.33 714.76 88.33 714.76 251.77"></polygon><path class="cls-2" d="M1008.23,124.16c-11.76-11.4-25.69-20.22-41.77-26.47-16.09-6.24-33.49-9.36-52.21-9.36h-98.66v253.14h99.38c18.48,0,35.71-3.12,51.67-9.36,15.96-6.24,29.83-15.06,41.59-26.47,11.76-11.4,20.88-24.85,27.37-40.33,6.48-15.48,9.72-32.35,9.72-50.59s-3.24-35.05-9.72-50.41c-6.48-15.36-15.61-28.75-27.37-40.15ZM985,258.47c-6.84,12.6-16.45,22.33-28.81,29.17-12.37,6.84-26.59,10.26-42.67,10.26h-48.97v-166h48.97c16.08,0,30.25,3.48,42.49,10.44,12.24,6.97,21.84,16.56,28.81,28.81,6.96,12.24,10.44,26.65,10.44,43.21s-3.42,31.51-10.26,44.11Z"></path><polygon class="cls-2" points="1133.54 88.33 1084.57 88.33 1084.57 341.47 1120.58 341.47 1133.54 341.47 1249.49 341.47 1249.49 297.9 1133.54 297.9 1133.54 88.33"></polygon><polygon class="cls-2" points="1333.39 298.26 1333.39 233.44 1448.25 233.44 1448.25 191.31 1333.39 191.31 1333.39 131.54 1458.7 131.54 1458.7 88.33 1333.39 88.33 1320.42 88.33 1284.41 88.33 1284.41 341.47 1320.42 341.47 1333.39 341.47 1460.5 341.47 1460.5 298.26 1333.39 298.26"></polygon><path class="cls-1" d="M391.53,79.82c-20.12,0-39.98,6.21-56.72,17.52-13.1-28.39-16.4-49.71-10.14-65.84C341.4,11.48,365.66,0,391.53,0s50.13,11.48,66.87,31.5c3.72,10.18,2.37,28.91-14.29,63.17-15.89-9.75-33.98-14.84-52.58-14.84Z"></path><path class="cls-1" d="M527.12,372.62c-92.39-102.86-151.23-176.3-184.79-231.01-20.96-34.09-32.38-61.18-34.83-83.45-16.15,29.69-25.02,62.74-25.95,97.17-.34,12.77,9.64,42.28,59.26,110.29,34.57,47.38,77.69,98.98,109.13,136.69,13.36,16.05,24.6,29.43,32.63,39.52l44.55-69.21Z"></path><path class="cls-1" d="M397.95,196.24c29.84-41.51,51.23-76.54,63.48-104.16,6.34-14.24,10.4-26.67,12.17-37.54,17.41,30.55,27.05,64.98,27.98,100.88.34,12.25-8.88,40.13-54.1,103.12-18.77-22.7-35.25-43.41-49.54-62.31h0Z"></path><path class="cls-1" d="M380.29,338.84c-17.33,21.32-34.07,41.42-48.86,59.11-13.36,16.05-24.6,29.43-32.63,39.52l-44.63-69.21c30.77-34.43,44.55-51.6,68.81-81.72,2.71-3.37,5.58-6.9,8.54-10.61,14.71,20.02,31.28,41.16,48.78,62.91h0Z"></path></svg>